# xmcd CD database file
#
# Track frame offsets:
#	150
#	34877
#	62259
#	94340
#	128661
#	154345
#	172453
#	208052
#	245805
#	276426
#
# Disc length: 4104 seconds
#
# Revision: 0
# Processed by: cddbd v1.5.2PL0 Copyright (c) Steve Scherf et al.
# Submitted via: CDex 1.70beta2
#
DISCID=9a10060a
DTITLE=The Alan Stuart Octet - It's About Time
DYEAR=2001
DGENRE=Jazz
TTITLE0=Jennine
TTITLE1=Willie
TTITLE2=Joy Spring
TTITLE3=My Foolish Heart
TTITLE4=The Man I love
TTITLE5=My Favourite Things
TTITLE6=Tale of the Bondi Beach Crab
TTITLE7=Third I
TTITLE8=Legacy
TTITLE9=Flight of the Foo Birds
EXTD=YEAR: 2001
EXTT0=
EXTT1=
EXTT2=
EXTT3=
EXTT4=
EXTT5=
EXTT6=
EXTT7=
EXTT8=
EXTT9=
PLAYORDER=
